{
  "source": "C:\\Users\\Peter\\Desktop\\stuff\\MIUN\\quantitative_research\\video_compression\\videos\\BVI-HD\\BVI-HD_CDVL_videos\\ORIG\\ParkPlay_1920x1080_50fps.mp4",
  "output": "C:\\Users\\Peter\\Desktop\\stuff\\MIUN\\quantitative_research\\video_compression\\compressed_videos\\BVI-HD\\av1\\8\\ParkPlay_1920x1080_50fps_av1.mkv",
  "codec": "av1",
  "ok": "Input #0, mov,mp4,m4a,3gp,3g2,mj2, from 'C:\\Users\\Peter\\Desktop\\stuff\\MIUN\\quantitative_research\\video_compression\\videos\\BVI-HD\\BVI-HD_CDVL_videos\\ORIG\\ParkPlay_1920x1080_50fps.mp4':\n  Metadata:\n    major_brand     : isom\n    minor_version   : 512\n    compatible_brands: isomiso2avc1mp41\n    encoder         : Lavf54.28.101\n  Duration: 00:00:05.00, start: 0.000000, bitrate: 620563 kb/s\n  Stream #0:0[0x1](und): Video: h264 (High 4:4:4 Predictive) (avc1 / 0x31637661), yuv420p(progressive), 1920x1080, 620558 kb/s, 50 fps, 50 tbr, 50 tbn (default)\n    Metadata:\n      handler_name    : VideoHandler\n      vendor_id       : [0][0][0][0]\n[out#0/matroska @ 000001ea9cc5f0c0] Codec AVOption b:a (set bitrate (in bits/s)) has not been used for any stream. The most likely reason is either wrong type (e.g. a video option with no video streams) or that it is a private option of some decoder which was not actually used for any stream.\nStream mapping:\n  Stream #0:0 -> #0:0 (h264 (native) -> av1 (libsvtav1))\nPress [q] to stop, [?] for help\nSvt[info]: -------------------------------------------\nSvt[info]: SVT [version]:\tSVT-AV1 Encoder Lib v3.1.0-19-g6ecfe8ec\nSvt[info]: SVT [build]  :\tGCC 15.2.0\t 64 bit\nSvt[info]: LIB Build date: Aug 17 2025 11:37:13\nSvt[info]: -------------------------------------------\nSvt[info]: Level of Parallelism: 5\nSvt[info]: Number of PPCS 93\nSvt[info]: [asm level on system : up to avx2]\nSvt[info]: [asm level selected : up to avx2]\nSvt[info]: -------------------------------------------\nSvt[info]: SVT [config]: main profile\ttier (auto)\tlevel (auto)\nSvt[info]: SVT [config]: width / height / fps numerator / fps denominator \t\t: 1920 / 1080 / 50 / 1\nSvt[info]: SVT [config]: bit-depth / color format \t\t\t\t\t: 8 / YUV420\nSvt[info]: SVT [config]: preset / tune / pred struct \t\t\t\t\t: 4 / PSNR / random access\nSvt[info]: SVT [config]: gop size / mini-gop size / key-frame type \t\t\t: 321 / 16 / key frame\nSvt[info]: SVT [config]: BRC mode / target bitrate (kbps)\t\t\t\t: VBR / 8000 \nSvt[info]: SVT [config]: AQ mode / Variance Boost \t\t\t\t\t: 2 / 0\nSvt[info]: SVT [config]: sharpness / luminance-based QP bias \t\t\t\t: 0 / 0\nSvt[info]: SVT [config]: QP scale compress strength \t\t\t\t\t: 0\nSvt[info]: -------------------------------------------\nOutput #0, matroska, to 'C:\\Users\\Peter\\Desktop\\stuff\\MIUN\\quantitative_research\\video_compression\\compressed_videos\\BVI-HD\\av1\\8\\ParkPlay_1920x1080_50fps_av1.mkv':\n  Metadata:\n    major_brand     : isom\n    minor_version   : 512\n    compatible_brands: isomiso2avc1mp41\n    encoder         : Lavf62.3.100\n  Stream #0:0(und): Video: av1 (AV01 / 0x31305641), yuv420p(tv, progressive), 1920x1080, q=2-31, 8000 kb/s, 50 fps, 1k tbn (default)\n    Metadata:\n      encoder         : Lavc62.11.100 libsvtav1\n      handler_name    : VideoHandler\n      vendor_id       : [0][0][0][0]\n    Side data:\n      cpb: bitrate max/min/avg: 0/0/8000000 buffer size: 8000000 vbv_delay: N/A\nframe=    0 fps=0.0 q=0.0 size=       0KiB time=N/A bitrate=N/A speed=N/A elapsed=0:00:01.08    \nframe=    0 fps=0.0 q=0.0 size=       0KiB time=N/A bitrate=N/A speed=N/A elapsed=0:00:01.61    \nframe=    0 fps=0.0 q=0.0 size=       0KiB time=N/A bitrate=N/A speed=N/A elapsed=0:00:02.26    \nframe=    0 fps=0.0 q=0.0 size=       0KiB time=N/A bitrate=N/A speed=N/A elapsed=0:00:02.87    \nframe=    0 fps=0.0 q=0.0 size=       0KiB time=N/A bitrate=N/A speed=N/A elapsed=0:00:03.43    \nframe=    0 fps=0.0 q=0.0 size=       0KiB time=N/A bitrate=N/A speed=N/A elapsed=0:00:04.04    \nframe=    0 fps=0.0 q=0.0 size=       0KiB time=N/A bitrate=N/A speed=N/A elapsed=0:00:04.57    \nframe=    0 fps=0.0 q=0.0 size=       0KiB time=N/A bitrate=N/A speed=N/A elapsed=0:00:05.13    \nframe=    0 fps=0.0 q=0.0 size=       0KiB time=N/A bitrate=N/A speed=N/A elapsed=0:00:05.70    \nframe=    0 fps=0.0 q=0.0 size=       0KiB time=N/A bitrate=N/A speed=N/A elapsed=0:00:06.23    \nframe=    0 fps=0.0 q=0.0 size=       0KiB time=N/A bitrate=N/A speed=N/A elapsed=0:00:06.80    \nframe=    1 fps=0.1 q=22.0 size=       1KiB time=00:00:00.00 bitrate=N/A speed=   0x elapsed=0:00:07.37    \nframe=    1 fps=0.1 q=22.0 size=       1KiB time=00:00:00.00 bitrate=N/A speed=   0x elapsed=0:00:07.90    \nframe=    1 fps=0.1 q=22.0 size=       1KiB time=00:00:00.00 bitrate=N/A speed=   0x elapsed=0:00:08.42    \nframe=    1 fps=0.1 q=22.0 size=       1KiB time=00:00:00.00 bitrate=N/A speed=   0x elapsed=0:00:08.96    \nframe=    3 fps=0.3 q=35.0 size=       1KiB time=00:00:00.04 bitrate= 142.6kbits/s speed=0.0042x elapsed=0:00:09.52    \nframe=    7 fps=0.7 q=35.0 size=       1KiB time=00:00:00.10 bitrate=  57.0kbits/s speed=0.00993x elapsed=0:00:10.06    \nframe=    8 fps=0.8 q=33.0 size=       1KiB time=00:00:00.14 bitrate=  40.7kbits/s speed=0.0132x elapsed=0:00:10.62    \nframe=   10 fps=0.9 q=35.0 size=       1KiB time=00:00:00.18 bitrate=  31.7kbits/s speed=0.0161x elapsed=0:00:11.17    \nframe=   13 fps=1.1 q=31.0 size=       1KiB time=00:00:00.24 bitrate=  23.8kbits/s speed=0.0205x elapsed=0:00:11.71    \nframe=   18 fps=1.5 q=37.0 size=       1KiB time=00:00:00.34 bitrate=  16.8kbits/s speed=0.0277x elapsed=0:00:12.27    \nframe=   20 fps=1.6 q=37.0 size=       1KiB time=00:00:00.36 bitrate=  15.8kbits/s speed=0.0281x elapsed=0:00:12.80    \nframe=   22 fps=1.6 q=35.0 size=       1KiB time=00:00:00.42 bitrate=  13.6kbits/s speed=0.0315x elapsed=0:00:13.35    \nframe=   24 fps=1.7 q=35.0 size=       1KiB time=00:00:00.46 bitrate=  12.4kbits/s speed=0.033x elapsed=0:00:13.92    \nframe=   27 fps=1.9 q=35.0 size=       1KiB time=00:00:00.52 bitrate=  11.0kbits/s speed=0.0359x elapsed=0:00:14.48    \nframe=   30 fps=2.0 q=37.0 size=       1KiB time=00:00:00.58 bitrate=   9.8kbits/s speed=0.0385x elapsed=0:00:15.06    \nframe=   34 fps=2.2 q=38.0 size=       1KiB time=00:00:00.66 bitrate=   8.6kbits/s speed=0.0423x elapsed=0:00:15.59    \nframe=   37 fps=2.3 q=35.0 size=       1KiB time=00:00:00.72 bitrate=   7.9kbits/s speed=0.0446x elapsed=0:00:16.12    \nframe=   39 fps=2.3 q=33.0 size=       1KiB time=00:00:00.76 bitrate=   7.5kbits/s speed=0.0455x elapsed=0:00:16.69    \nframe=   42 fps=2.4 q=37.0 size=       1KiB time=00:00:00.82 bitrate=   7.0kbits/s speed=0.0474x elapsed=0:00:17.28    \nframe=   44 fps=2.5 q=34.0 size=       1KiB time=00:00:00.86 bitrate=   6.6kbits/s speed=0.0482x elapsed=0:00:17.84    \nframe=   48 fps=2.6 q=37.0 size=       1KiB time=00:00:00.94 bitrate=   6.1kbits/s speed=0.0511x elapsed=0:00:18.37    \nframe=   50 fps=2.6 q=37.0 size=       1KiB time=00:00:00.98 bitrate=   5.8kbits/s speed=0.0518x elapsed=0:00:18.90    \nframe=   53 fps=2.7 q=34.0 size=       1KiB time=00:00:01.02 bitrate=   5.6kbits/s speed=0.0525x elapsed=0:00:19.42    \nframe=   54 fps=2.7 q=37.0 size=       1KiB time=00:00:01.06 bitrate=   5.4kbits/s speed=0.0531x elapsed=0:00:19.95    \nframe=   57 fps=2.8 q=31.0 size=       1KiB time=00:00:01.10 bitrate=   5.2kbits/s speed=0.0536x elapsed=0:00:20.51    \nframe=   59 fps=2.8 q=34.0 size=       1KiB time=00:00:01.16 bitrate=   4.9kbits/s speed=0.0551x elapsed=0:00:21.06    \nframe=   63 fps=2.9 q=35.0 size=       1KiB time=00:00:01.24 bitrate=   4.6kbits/s speed=0.0574x elapsed=0:00:21.60    \nframe=   67 fps=3.0 q=37.0 size=       1KiB time=00:00:01.32 bitrate=   4.3kbits/s speed=0.0596x elapsed=0:00:22.15    \nframe=   70 fps=3.1 q=39.0 size=       1KiB time=00:00:01.38 bitrate=   4.1kbits/s speed=0.0607x elapsed=0:00:22.73    \nframe=   72 fps=3.1 q=39.0 size=       1KiB time=00:00:01.42 bitrate=   4.0kbits/s speed=0.061x elapsed=0:00:23.29    \nframe=   76 fps=3.2 q=40.0 size=       1KiB time=00:00:01.50 bitrate=   3.8kbits/s speed=0.0629x elapsed=0:00:23.85    \nframe=   80 fps=3.3 q=40.0 size=       1KiB time=00:00:01.58 bitrate=   3.6kbits/s speed=0.0646x elapsed=0:00:24.46    \nframe=   84 fps=3.4 q=40.0 size=       1KiB time=00:00:01.66 bitrate=   3.4kbits/s speed=0.0663x elapsed=0:00:25.03    \nframe=   86 fps=3.4 q=40.0 size=       1KiB time=00:00:01.70 bitrate=   3.4kbits/s speed=0.0665x elapsed=0:00:25.55    \nframe=   88 fps=3.4 q=40.0 size=       1KiB time=00:00:01.74 bitrate=   3.3kbits/s speed=0.0668x elapsed=0:00:26.06    \nframe=   92 fps=3.5 q=41.0 size=       1KiB time=00:00:01.80 bitrate=   3.2kbits/s speed=0.0677x elapsed=0:00:26.58    \nframe=   95 fps=3.5 q=37.0 size=       1KiB time=00:00:01.88 bitrate=   3.0kbits/s speed=0.0693x elapsed=0:00:27.13    \nframe=   99 fps=3.6 q=39.0 size=       1KiB time=00:00:01.96 bitrate=   2.9kbits/s speed=0.0709x elapsed=0:00:27.64    \nframe=  102 fps=3.6 q=41.0 size=       1KiB time=00:00:02.02 bitrate=   2.8kbits/s speed=0.0717x elapsed=0:00:28.15    \nframe=  106 fps=3.7 q=41.0 size=       1KiB time=00:00:02.06 bitrate=   2.8kbits/s speed=0.0718x elapsed=0:00:28.67    \nframe=  109 fps=3.7 q=34.0 size=       1KiB time=00:00:02.14 bitrate=   2.7kbits/s speed=0.0731x elapsed=0:00:29.26    \nframe=  113 fps=3.8 q=25.0 size=       1KiB time=00:00:02.24 bitrate=   2.5kbits/s speed=0.075x elapsed=0:00:29.86    \nframe=  117 fps=3.8 q=37.0 size=       1KiB time=00:00:02.32 bitrate=   2.5kbits/s speed=0.0762x elapsed=0:00:30.42    \nframe=  119 fps=3.8 q=36.0 size=       1KiB time=00:00:02.36 bitrate=   2.4kbits/s speed=0.0761x elapsed=0:00:31.00    \nframe=  124 fps=3.9 q=40.0 size=       1KiB time=00:00:02.46 bitrate=   2.3kbits/s speed=0.0778x elapsed=0:00:31.62    \nframe=  128 fps=4.0 q=41.0 size=       1KiB time=00:00:02.54 bitrate=   2.2kbits/s speed=0.0788x elapsed=0:00:32.24    \nframe=  134 fps=4.1 q=41.0 size=       1KiB time=00:00:02.64 bitrate=   2.2kbits/s speed=0.0806x elapsed=0:00:32.76    \nframe=  136 fps=4.1 q=41.0 size=       1KiB time=00:00:02.70 bitrate=   2.1kbits/s speed=0.0811x elapsed=0:00:33.31    \nframe=  140 fps=4.1 q=40.0 size=       1KiB time=00:00:02.78 bitrate=   2.1kbits/s speed=0.082x elapsed=0:00:33.90    \nframe=  144 fps=4.2 q=41.0 size=       1KiB time=00:00:02.86 bitrate=   2.0kbits/s speed=0.0831x elapsed=0:00:34.43    \nframe=  148 fps=4.2 q=41.0 size=       1KiB time=00:00:02.94 bitrate=   1.9kbits/s speed=0.0841x elapsed=0:00:34.96    \nframe=  151 fps=4.3 q=40.0 size=       1KiB time=00:00:03.00 bitrate=   1.9kbits/s speed=0.0845x elapsed=0:00:35.49    \nframe=  157 fps=4.4 q=35.0 size=       1KiB time=00:00:03.12 bitrate=   1.8kbits/s speed=0.0865x elapsed=0:00:36.05    \nframe=  159 fps=4.3 q=38.0 size=       1KiB time=00:00:03.16 bitrate=   1.8kbits/s speed=0.0863x elapsed=0:00:36.60    \nframe=  165 fps=4.4 q=38.0 size=       1KiB time=00:00:03.28 bitrate=   1.7kbits/s speed=0.0883x elapsed=0:00:37.13    \nframe=  169 fps=4.5 q=35.0 size=       1KiB time=00:00:03.36 bitrate=   1.7kbits/s speed=0.0892x elapsed=0:00:37.67    \nframe=  171 fps=4.5 q=38.0 size=       1KiB time=00:00:03.40 bitrate=   1.7kbits/s speed=0.089x elapsed=0:00:38.20    \nframe=  175 fps=4.5 q=38.0 size=       1KiB time=00:00:03.44 bitrate=   1.7kbits/s speed=0.0888x elapsed=0:00:38.72    \nframe=  179 fps=4.6 q=40.0 size=       1KiB time=00:00:03.52 bitrate=   1.6kbits/s speed=0.0896x elapsed=0:00:39.30    \nframe=  183 fps=4.6 q=40.0 size=       1KiB time=00:00:03.64 bitrate=   1.6kbits/s speed=0.0913x elapsed=0:00:39.85    \nframe=  185 fps=4.6 q=35.0 size=       1KiB time=00:00:03.68 bitrate=   1.6kbits/s speed=0.0911x elapsed=0:00:40.40    \nframe=  189 fps=4.6 q=35.0 size=       1KiB time=00:00:03.76 bitrate=   1.5kbits/s speed=0.0919x elapsed=0:00:40.92    \nframe=  193 fps=4.7 q=28.0 size=       1KiB time=00:00:03.84 bitrate=   1.5kbits/s speed=0.0926x elapsed=0:00:41.46    \nframe=  197 fps=4.7 q=38.0 size=       1KiB time=00:00:03.92 bitrate=   1.5kbits/s speed=0.0933x elapsed=0:00:42.02    \nframe=  201 fps=4.7 q=34.0 size=       1KiB time=00:00:04.00 bitrate=   1.4kbits/s speed=0.0938x elapsed=0:00:42.62    \nframe=  207 fps=4.8 q=38.0 size=       1KiB time=00:00:04.08 bitrate=   1.4kbits/s speed=0.0944x elapsed=0:00:43.22    \nframe=  213 fps=4.9 q=38.0 size=       1KiB time=00:00:04.24 bitrate=   1.3kbits/s speed=0.0968x elapsed=0:00:43.80    \nframe=  217 fps=4.9 q=34.0 size=       1KiB time=00:00:04.32 bitrate=   1.3kbits/s speed=0.0974x elapsed=0:00:44.36    \nframe=  217 fps=4.8 q=34.0 size=       1KiB time=00:00:04.32 bitrate=   1.3kbits/s speed=0.0962x elapsed=0:00:44.89    \nframe=  221 fps=4.9 q=35.0 size=       1KiB time=00:00:04.40 bitrate=   1.3kbits/s speed=0.0969x elapsed=0:00:45.41    \nframe=  227 fps=4.9 q=42.0 size=       1KiB time=00:00:04.48 bitrate=   1.3kbits/s speed=0.0975x elapsed=0:00:45.94    \nframe=  233 fps=5.0 q=35.0 size=       1KiB time=00:00:04.64 bitrate=   1.2kbits/s speed=0.0998x elapsed=0:00:46.51    \nframe=  235 fps=5.0 q=42.0 size=       1KiB time=00:00:04.68 bitrate=   1.2kbits/s speed=0.0994x elapsed=0:00:47.07    \nframe=  239 fps=5.0 q=42.0 size=       1KiB time=00:00:04.76 bitrate=   1.2kbits/s speed=0.0999x elapsed=0:00:47.62    \n[out#0/matroska @ 000001ea9cc5f0c0] video:5154KiB audio:0KiB subtitle:0KiB other streams:0KiB global headers:0KiB muxing overhead: 0.037215%\nframe=  250 fps=5.2 q=42.0 Lsize=    5156KiB time=00:00:04.98 bitrate=8481.1kbits/s speed=0.104x elapsed=0:00:47.86    \n",
  "seconds": 48.64560389518738,
  "probe_out": {}
}